<?xml version="1.0" standalone="no"?>
<!DOCTYPE svg PUBLIC "-//W3C//DTD SVG 20010904//EN"
 "http://www.w3.org/TR/2001/REC-SVG-20010904/DTD/svg10.dtd">
<svg version="1.0" xmlns="http://www.w3.org/2000/svg"
 width="920.000000pt" height="971.000000pt" viewBox="0 0 920.000000 971.000000"
 preserveAspectRatio="xMidYMid meet">

<g transform="translate(0.000000,971.000000) scale(0.100000,-0.100000)"
fill="#000000" stroke="none">
<path d="M6275 8924 c-47 -26 -72 -52 -145 -155 -82 -114 -100 -155 -100 -224
0 -118 123 -198 233 -151 134 56 162 266 36 266 -16 0 -29 2 -29 5 0 11 84
125 92 125 11 0 10 -28 -2 -35 -5 -3 -10 -10 -10 -14 0 -9 102 -79 121 -83 19
-5 49 64 49 115 0 59 -19 98 -66 133 -45 35 -132 43 -179 18z m-49 -350 c-3
-9 -6 -18 -6 -20 0 -2 -7 -4 -15 -4 -18 0 -19 12 -3 28 17 17 31 15 24 -4z"/>
<path d="M6622 8719 c-58 -12 -107 -55 -179 -156 -85 -120 -102 -150 -109
-207 -9 -59 10 -108 56 -150 89 -80 216 -50 274 65 33 67 33 99 0 138 -20 24
-34 31 -60 31 l-35 0 17 29 c27 45 82 107 89 99 4 -3 0 -17 -9 -30 -14 -22
-13 -24 50 -66 l64 -42 20 32 c42 69 38 137 -12 194 -49 55 -104 76 -166 63z
m-92 -370 c-12 -22 -30 -25 -30 -6 0 17 21 38 32 31 4 -3 3 -14 -2 -25z"/>
<path d="M6908 8514 c-25 -35 -37 -44 -54 -40 -17 5 -28 -5 -59 -49 -31 -45
-35 -58 -25 -70 10 -12 -4 -37 -84 -149 -53 -73 -96 -137 -96 -142 0 -5 23
-24 50 -42 34 -23 55 -32 69 -27 12 3 93 41 181 84 149 72 163 81 200 131 22
29 40 57 40 60 0 4 -27 26 -60 50 -33 24 -60 46 -60 49 0 3 14 24 30 45 17 22
30 42 30 46 0 3 -29 27 -65 53 l-64 46 -33 -45z m20 -300 c-35 -20 -40 -17
-22 11 13 21 19 23 31 13 12 -10 11 -14 -9 -24z"/>
<path d="M7206 8285 c-97 -34 -145 -128 -111 -217 5 -13 2 -15 -13 -12 -33 9
-89 -22 -122 -68 -28 -38 -31 -49 -28 -98 7 -98 71 -155 174 -155 56 0 66 3
94 30 48 45 63 81 58 137 l-5 48 32 0 c72 0 145 86 145 170 0 61 -28 109 -81
141 -56 34 -94 41 -143 24z m54 -177 c-1 -17 -35 -58 -49 -58 -16 0 -14 8 10
41 21 30 39 38 39 17z m-134 -192 c-17 -27 -36 -34 -36 -15 0 5 8 21 18 34 23
32 40 14 18 -19z"/>
<path d="M7505 8069 c-48 -15 -77 -45 -174 -182 -93 -131 -108 -169 -98 -234
22 -133 202 -183 293 -81 42 47 177 243 191 277 33 78 -9 175 -91 212 -45 20
-75 22 -121 8z m55 -170 c0 -19 -151 -220 -161 -213 -11 7 -11 6 75 127 65 91
86 112 86 86z"/>
<path d="M4650 7178 c-84 -117 -155 -220 -157 -228 -3 -10 30 -39 94 -84 l97
-70 25 34 c15 18 37 45 51 61 l25 28 270 -195 c148 -107 274 -193 280 -191 18
6 137 179 131 192 -2 7 -122 97 -265 199 -143 102 -263 191 -266 196 -3 5 13
37 37 70 25 36 38 63 32 68 -27 25 -183 132 -191 132 -5 0 -78 -96 -163 -212z"/>
<path d="M4238 6607 c-62 -86 -65 -93 -50 -108 33 -33 652 -471 660 -467 35
15 212 124 210 130 -3 9 -739 538 -747 538 -3 -1 -36 -42 -73 -93z"/>
<path d="M7483 6391 c-39 -10 -186 -93 -251 -141 -85 -64 -116 -135 -92 -213
24 -81 114 -137 195 -121 77 14 155 90 155 150 0 34 -33 84 -56 84 -29 0 -13
19 47 54 33 20 65 36 70 36 16 0 10 -17 -13 -32 l-22 -14 38 -62 c21 -34 43
-62 49 -62 15 0 62 42 83 75 24 36 22 112 -4 161 -35 69 -119 105 -199 85z
m-133 -285 c0 -16 -37 -32 -48 -21 -7 7 25 35 40 35 4 0 8 -6 8 -14z"/>
<path d="M3967 6228 c-13 -18 -62 -85 -107 -148 l-82 -115 99 -92 c54 -51 95
-93 90 -93 -4 0 -57 25 -117 55 -60 30 -113 55 -118 55 -10 0 -202 -265 -202
-279 0 -5 61 -52 135 -106 l135 -96 238 141 c130 77 244 144 252 149 12 8 12
13 -4 30 -22 25 -10 28 15 5 17 -15 25 -12 126 46 59 35 114 67 120 72 9 7
-65 66 -259 205 -149 107 -276 197 -283 200 -7 2 -24 -11 -38 -29z"/>
<path d="M7683 6069 c-55 -10 -246 -122 -300 -175 -93 -93 -76 -225 37 -281
58 -30 96 -29 161 5 93 49 127 135 74 187 -13 14 -29 25 -35 25 -24 0 -6 18
55 54 65 38 101 42 57 5 -15 -11 -21 -23 -16 -31 4 -7 23 -37 41 -66 l34 -53
29 21 c36 26 66 74 75 121 9 46 -26 131 -65 159 -37 26 -96 38 -147 29z m-143
-288 c0 -12 -39 -25 -48 -16 -7 7 17 25 36 25 6 0 12 -4 12 -9z"/>
<path d="M7933 5765 c-34 -21 -46 -23 -60 -14 -27 16 -118 -38 -117 -70 0 -17
-26 -37 -143 -106 -79 -47 -143 -91 -143 -98 0 -7 14 -34 31 -61 l30 -48 197
7 c209 8 211 8 310 73 11 7 5 23 -27 76 l-40 67 49 30 c28 17 50 34 49 37 -1
14 -75 126 -84 129 -6 1 -29 -9 -52 -22z m-83 -275 c-8 -5 -26 -10 -40 -10
l-25 0 30 20 c20 13 33 16 40 9 7 -7 5 -13 -5 -19z"/>
<path d="M5334 5444 c-126 -74 -233 -139 -238 -144 -9 -9 101 -199 120 -207 6
-2 36 9 66 26 30 17 59 31 65 31 5 0 86 -128 179 -285 93 -157 173 -285 178
-285 12 0 193 107 200 118 3 5 -71 136 -164 293 -93 156 -170 287 -170 291 0
4 27 23 60 43 33 20 60 41 60 46 0 12 -109 197 -120 204 -4 2 -110 -56 -236
-131z"/>
<path d="M8022 5419 c-50 -25 -78 -61 -87 -112 -6 -32 -10 -35 -25 -27 -27 14
-87 12 -118 -4 -15 -8 -40 -28 -56 -45 -62 -65 -39 -193 45 -248 81 -53 204
-10 239 85 13 35 18 39 34 30 29 -16 103 -3 146 27 49 34 85 103 77 150 -22
133 -143 201 -255 144z m76 -160 c-5 -16 -56 -44 -65 -35 -9 9 35 45 55 46 8
0 12 -5 10 -11z m-176 -104 c1 -14 -49 -41 -59 -32 -4 5 3 17 17 27 26 20 41
22 42 5z"/>
<path d="M3292 5224 c-28 -14 -71 -47 -94 -73 -43 -49 -132 -171 -125 -171 3
0 101 57 218 127 231 137 234 141 113 142 -46 1 -72 -5 -112 -25z"/>
<path d="M4728 5087 c-48 -29 -90 -56 -93 -59 -8 -8 456 -789 472 -795 10 -4
203 102 203 111 0 16 -471 791 -482 793 -7 1 -52 -22 -100 -50z"/>
<path d="M8119 5049 c-202 -116 -229 -144 -229 -234 0 -66 38 -127 96 -155 73
-36 107 -27 281 77 54 31 112 68 130 81 96 71 79 234 -30 286 -69 32 -111 23
-248 -55z m171 -101 c0 -12 -187 -129 -218 -136 -39 -10 5 27 98 83 114 68
120 71 120 53z"/>
<path d="M4213 4780 c-83 -49 -154 -93 -157 -98 -2 -4 13 -48 35 -97 56 -125
69 -155 64 -155 -2 0 -42 47 -90 105 l-87 106 -47 -28 c-235 -138 -251 -149
-248 -164 6 -25 461 -788 470 -789 11 0 197 111 197 117 0 3 -43 77 -96 164
-52 88 -94 164 -92 170 2 5 59 -58 128 -141 68 -82 128 -150 133 -150 7 0 116
61 135 76 3 2 -57 165 -129 346 -10 27 -15 47 -11 44 5 -3 53 -80 106 -171 54
-90 101 -167 105 -169 9 -6 205 110 209 124 4 10 -438 761 -462 787 -9 10 -44
-7 -163 -77z"/>
<path d="M3215 4180 c-80 -32 -260 -144 -259 -163 2 -23 457 -787 469 -787 24
0 243 138 282 177 69 72 92 186 58 299 -17 58 -176 330 -229 391 -20 23 -64
55 -98 72 -73 37 -146 40 -223 11z m121 -228 c19 -13 205 -335 202 -350 -2 -9
-7 -17 -13 -18 -9 -3 -225 352 -225 369 0 9 22 9 36 -1z"/>
<path d="M5360 3720 c-101 -61 -188 -114 -193 -119 -10 -10 449 -790 468 -797
9 -4 371 201 398 226 9 8 -113 220 -126 220 -5 0 -52 -25 -104 -56 -102 -60
-97 -60 -128 -3 -13 25 -13 27 23 47 20 12 43 26 51 31 11 7 0 31 -50 114
l-63 106 -51 -29 -50 -29 -18 30 c-9 17 -17 35 -17 39 0 5 43 35 95 65 l96 57
-19 31 c-11 18 -38 65 -62 105 -23 39 -47 72 -54 72 -6 0 -94 -50 -196 -110z"/>
<path d="M2438 3728 c-59 -35 -108 -67 -108 -73 0 -15 311 -858 322 -872 7 -9
32 1 96 39 48 28 92 55 99 60 9 7 3 30 -24 91 -48 112 -48 110 -14 130 16 9
33 17 39 17 5 0 36 -34 68 -75 32 -41 66 -75 74 -74 19 1 182 101 187 114 3
12 -603 699 -620 703 -7 1 -60 -26 -119 -60z m291 -446 c24 -29 42 -54 40 -55
-2 -2 -12 -9 -21 -16 -16 -12 -21 -7 -48 54 -29 65 -39 99 -22 80 5 -6 28 -34
51 -63z"/>
<path d="M4850 3418 c-19 -12 -59 -37 -87 -55 l-53 -32 75 -127 c41 -69 75
-131 75 -137 0 -7 -51 39 -113 101 -62 61 -116 112 -120 112 -15 0 -197 -112
-197 -122 0 -10 447 -766 464 -785 9 -10 31 -1 99 40 48 28 87 57 87 64 0 7
-27 56 -59 110 -33 54 -57 100 -55 102 3 3 46 -37 98 -88 l93 -92 106 63 c59
35 106 68 106 73 0 16 -463 788 -474 792 -5 1 -26 -7 -45 -19z"/>
<path d="M3975 2896 c-56 -26 -108 -74 -132 -120 -26 -49 -28 -143 -6 -201 22
-56 229 -406 267 -452 68 -80 192 -108 291 -64 125 55 183 169 150 295 -16 61
-220 417 -276 480 -72 83 -196 109 -294 62z m227 -404 c91 -152 116 -209 86
-200 -15 5 -217 336 -218 356 0 8 8 12 17 10 9 -2 60 -74 115 -166z"/>
<path d="M1210 2676 c-48 -16 -258 -142 -293 -175 -45 -41 -60 -77 -55 -137 8
-99 78 -159 177 -152 48 3 74 15 181 77 179 105 210 138 210 226 0 75 -51 145
-121 165 -43 13 -56 12 -99 -4z m48 -168 c-4 -13 -205 -137 -221 -138 -27 -1
13 33 104 87 107 65 124 72 117 51z"/>
<path d="M1374 2345 c-48 -29 -74 -64 -74 -101 0 -21 -3 -25 -17 -19 -70 28
-143 7 -200 -58 -53 -61 -52 -140 4 -215 32 -42 72 -62 128 -62 86 0 159 56
171 132 5 28 10 36 17 29 20 -20 99 -13 140 12 54 33 77 72 77 131 0 136 -134
219 -246 151z m86 -145 c0 -18 -50 -44 -62 -32 -7 7 -2 15 18 26 34 18 44 19
44 6z m-170 -103 c0 -13 -40 -37 -60 -37 -20 0 -9 20 18 34 34 19 42 19 42 3z"/>
<path d="M1530 1951 c-131 -6 -137 -7 -195 -40 -33 -19 -61 -35 -63 -37 -2 -1
15 -32 38 -70 44 -73 45 -69 -22 -105 -21 -10 -38 -21 -38 -23 0 -13 75 -129
86 -133 7 -2 31 8 55 23 39 24 44 25 55 10 10 -15 17 -13 68 16 46 27 56 37
53 55 -3 18 17 34 144 109 164 97 155 82 102 167 -26 42 2 39 -283 28z m-10
-109 c0 -12 -46 -32 -54 -25 -16 16 -8 22 47 32 4 0 7 -3 7 -7z"/>
<path d="M1776 1730 c-71 -22 -136 -92 -136 -147 0 -33 33 -83 56 -83 29 0 13
-19 -47 -54 -33 -20 -65 -36 -70 -36 -16 0 -10 17 13 32 l21 14 -38 62 c-21
34 -43 62 -50 62 -22 0 -85 -73 -95 -111 -18 -65 17 -153 72 -187 80 -49 150
-35 303 58 118 73 151 101 176 155 24 51 23 89 0 142 -33 72 -131 116 -205 93z
m54 -170 c0 -12 -40 -34 -47 -26 -9 8 17 36 33 36 8 0 14 -4 14 -10z"/>
<path d="M1935 1393 c-114 -60 -140 -179 -47 -214 25 -10 24 -11 -39 -49 -60
-37 -89 -48 -89 -34 0 3 10 14 22 23 l21 18 -38 61 c-21 34 -43 62 -49 62 -15
0 -69 -57 -86 -88 -31 -62 2 -175 63 -212 80 -49 144 -37 296 55 111 67 157
108 186 164 35 70 -5 180 -78 214 -44 21 -123 21 -162 0z m85 -153 c0 -12 -40
-33 -48 -25 -4 4 2 13 12 21 23 16 36 18 36 4z"/>
</g>
</svg>
